<svg width="277" height="51" viewBox="0 0 277 51" fill="none" xmlns="http://www.w3.org/2000/svg">
<path d="M207.444 33.0496C207.444 32.1201 207.751 31.3546 208.366 30.7531C208.994 30.1516 209.807 29.8509 210.805 29.8509C211.775 29.8509 212.581 30.1516 213.223 30.7531C213.865 31.3409 214.186 32.1064 214.186 33.0496C214.186 34.0065 213.858 34.7788 213.202 35.3666C212.56 35.9408 211.761 36.2278 210.805 36.2278C209.835 36.2278 209.028 35.9339 208.386 35.3461C207.758 34.7583 207.444 33.9928 207.444 33.0496Z" fill="#71C5C9"/>
<path d="M229.721 36.0023C229.557 35.6606 229.393 35.0864 229.229 34.2799C228.19 35.7016 226.783 36.4124 225.007 36.4124C223.149 36.4124 221.605 35.7972 220.375 34.567C219.159 33.3367 218.551 31.7442 218.551 29.7894C218.551 27.4655 219.289 25.6679 220.765 24.3967C222.254 23.1254 224.392 22.476 227.179 22.4487H228.942V20.6648C228.942 19.6669 228.771 18.9629 228.429 18.5528C228.088 18.1427 227.589 17.9377 226.933 17.9377C225.485 17.9377 224.761 18.7852 224.761 20.4803H218.961C218.961 18.4298 219.726 16.7416 221.257 15.4156C222.8 14.076 224.747 13.4061 227.097 13.4061C229.529 13.4061 231.408 14.0418 232.733 15.3131C234.072 16.5707 234.742 18.3751 234.742 20.7263V31.1632C234.769 33.077 235.042 34.5738 235.561 35.6537V36.0023H229.721ZM226.298 31.8604C226.94 31.8604 227.487 31.7305 227.938 31.4708C228.388 31.211 228.723 30.9035 228.942 30.5481V25.9345H227.548C226.564 25.9345 225.786 26.2489 225.212 26.8777C224.652 27.5065 224.372 28.3472 224.372 29.3998C224.372 31.0402 225.014 31.8604 226.298 31.8604Z" fill="#71C5C9"/>
<path d="M256.219 25.6064C256.219 29.0922 255.618 31.7647 254.416 33.6238C253.227 35.4828 251.451 36.4124 249.087 36.4124C247.284 36.4124 245.836 35.6811 244.743 34.2184V44.5322H238.943V13.8162H244.312L244.517 15.8462C245.624 14.2195 247.134 13.4061 249.046 13.4061C251.41 13.4061 253.186 14.2673 254.375 15.9897C255.577 17.7121 256.192 20.3504 256.219 23.9045V25.6064ZM250.44 24.1506C250.44 22.0044 250.201 20.4871 249.723 19.5986C249.258 18.71 248.466 18.2658 247.345 18.2658C246.157 18.2658 245.289 18.7647 244.743 19.7626V30.1585C245.262 31.1153 246.143 31.5938 247.386 31.5938C248.534 31.5938 249.326 31.1085 249.764 30.138C250.214 29.1674 250.44 27.6569 250.44 25.6064V24.1506Z" fill="#71C5C9"/>
<path d="M277 25.6064C277 29.0922 276.399 31.7647 275.197 33.6238C274.008 35.4828 272.232 36.4124 269.868 36.4124C268.065 36.4124 266.616 35.6811 265.523 34.2184V44.5322H259.724V13.8162H265.093L265.298 15.8462C266.405 14.2195 267.914 13.4061 269.827 13.4061C272.191 13.4061 273.967 14.2673 275.156 15.9897C276.358 17.7121 276.973 20.3504 277 23.9045V25.6064ZM271.221 24.1506C271.221 22.0044 270.982 20.4871 270.503 19.5986C270.039 18.71 269.246 18.2658 268.126 18.2658C266.938 18.2658 266.07 18.7647 265.523 19.7626V30.1585C266.043 31.1153 266.924 31.5938 268.167 31.5938C269.315 31.5938 270.107 31.1085 270.544 30.138C270.995 29.1674 271.221 27.6569 271.221 25.6064V24.1506Z" fill="#71C5C9"/>
<path d="M82.8794 30.0559C82.8794 29.5638 82.6404 29.1127 82.1622 28.7026C81.6976 28.2789 80.6524 27.7116 79.0266 27.0007C76.6356 26.0302 74.9893 25.0255 74.0875 23.9866C73.1995 22.9477 72.7554 21.6559 72.7554 20.1112C72.7554 18.1701 73.4522 16.5707 74.8458 15.3131C76.2531 14.0418 78.1112 13.4061 80.4202 13.4061C82.8521 13.4061 84.799 14.035 86.2609 15.2926C87.7229 16.5502 88.4538 18.2384 88.4538 20.3572H82.654C82.654 18.5528 81.9026 17.6506 80.3997 17.6506C79.7849 17.6506 79.2793 17.842 78.8831 18.2247C78.4869 18.6075 78.2888 19.1406 78.2888 19.8241C78.2888 20.3162 78.5074 20.7537 78.9446 21.1364C79.3818 21.5055 80.4133 22.0386 82.0392 22.7358C84.4028 23.6106 86.0697 24.588 87.0397 25.6679C88.0234 26.7342 88.5153 28.1217 88.5153 29.8304C88.5153 31.8125 87.7707 33.405 86.2814 34.608C84.7922 35.8109 82.8385 36.4124 80.4202 36.4124C78.7943 36.4124 77.3597 36.098 76.1164 35.4692C74.8732 34.8267 73.8963 33.9382 73.1858 32.8036C72.489 31.669 72.1406 30.4455 72.1406 29.1332H77.6535C77.6808 30.1448 77.9131 30.9035 78.3503 31.4093C78.8012 31.915 79.5321 32.1679 80.5431 32.1679C82.1007 32.1679 82.8794 31.4639 82.8794 30.0559Z" fill="#7C898A"/>
<path d="M100.135 31.5938C101.816 31.5938 102.67 30.5002 102.697 28.313H108.148C108.121 30.7326 107.377 32.6874 105.915 34.1774C104.453 35.6674 102.567 36.4124 100.258 36.4124C97.4028 36.4124 95.2236 35.5239 93.7207 33.7468C92.2179 31.9697 91.4527 29.352 91.4254 25.8935V24.1301C91.4254 20.6443 92.1632 17.9855 93.6388 16.1538C95.128 14.322 97.3208 13.4061 100.217 13.4061C102.663 13.4061 104.589 14.1648 105.997 15.6822C107.404 17.1858 108.121 19.3252 108.148 22.1001H102.697C102.683 20.8562 102.478 19.8993 102.082 19.2295C101.686 18.5597 101.03 18.2247 100.115 18.2247C99.1038 18.2247 98.3797 18.587 97.9425 19.3115C97.5053 20.0223 97.273 21.4098 97.2457 23.4739V25.7295C97.2457 27.5339 97.3345 28.7983 97.5121 29.5228C97.6897 30.2337 97.9835 30.7599 98.3934 31.1017C98.8032 31.4298 99.3839 31.5938 100.135 31.5938Z" fill="#7C898A"/>
<path d="M117.514 36.0023H111.694V13.8162H117.514V36.0023ZM111.428 8.07493C111.428 7.17273 111.714 6.43456 112.288 5.86043C112.862 5.2863 113.627 4.99923 114.584 4.99923C115.54 4.99923 116.305 5.2863 116.879 5.86043C117.453 6.43456 117.74 7.17273 117.74 8.07493C117.74 8.96347 117.453 9.70164 116.879 10.2894C116.319 10.8772 115.554 11.1711 114.584 11.1711C113.614 11.1711 112.842 10.8772 112.268 10.2894C111.708 9.70164 111.428 8.96347 111.428 8.07493Z" fill="#7C898A"/>
<path d="M121.306 24.2326C121.306 20.5965 121.961 17.883 123.273 16.0923C124.585 14.3015 126.422 13.4061 128.786 13.4061C130.794 13.4061 132.345 14.199 133.438 15.7847L133.663 13.8162H138.889V36.0023C138.889 38.8319 138.097 40.9918 136.512 42.4818C134.927 43.9855 132.652 44.7373 129.688 44.7373C128.472 44.7373 127.194 44.4912 125.855 43.9991C124.516 43.5207 123.519 42.9055 122.863 42.1537L124.81 38.1348C125.357 38.7089 126.067 39.1737 126.941 39.5291C127.816 39.8982 128.642 40.0827 129.421 40.0827C130.719 40.0827 131.648 39.7683 132.208 39.1395C132.782 38.5244 133.076 37.5265 133.09 36.1458V34.2389C131.983 35.6879 130.542 36.4124 128.765 36.4124C126.402 36.4124 124.571 35.4965 123.273 33.6648C121.989 31.8193 121.333 29.2221 121.306 25.873V24.2326ZM127.105 25.6884C127.105 27.7389 127.372 29.2358 127.905 30.179C128.437 31.1085 129.285 31.5733 130.446 31.5733C131.635 31.5733 132.516 31.1427 133.09 30.2815V19.6806C132.488 18.7374 131.621 18.2658 130.487 18.2658C129.339 18.2658 128.485 18.7374 127.925 19.6806C127.379 20.6238 127.105 22.1411 127.105 24.2326V25.6884Z" fill="#7C898A"/>
<path d="M154.055 19.414L152.128 19.25C150.544 19.25 149.471 19.9471 148.911 21.3415V36.0023H143.091V13.8162H148.563L148.726 16.2153C149.642 14.3425 150.906 13.4061 152.518 13.4061C153.174 13.4061 153.707 13.495 154.116 13.6727L154.055 19.414Z" fill="#7C898A"/>
<path d="M166.966 36.0023C166.802 35.6606 166.638 35.0864 166.474 34.2799C165.436 35.7016 164.029 36.4124 162.252 36.4124C160.394 36.4124 158.85 35.7973 157.621 34.567C156.405 33.3367 155.797 31.7442 155.797 29.7894C155.797 27.4655 156.535 25.6679 158.01 24.3967C159.499 23.1254 161.638 22.476 164.425 22.4487H166.187V20.6648C166.187 19.6669 166.017 18.9629 165.675 18.5528C165.333 18.1427 164.835 17.9377 164.179 17.9377C162.731 17.9377 162.007 18.7852 162.007 20.4803H156.207C156.207 18.4298 156.972 16.7416 158.502 15.4156C160.046 14.076 161.993 13.4061 164.343 13.4061C166.775 13.4061 168.653 14.0418 169.979 15.3131C171.318 16.5707 171.987 18.3751 171.987 20.7263V31.1632C172.014 33.077 172.288 34.5738 172.807 35.6537V36.0023H166.966ZM163.544 31.8604C164.186 31.8604 164.732 31.7305 165.183 31.4708C165.634 31.211 165.969 30.9035 166.187 30.5481V25.9345H164.794C163.81 25.9345 163.031 26.2489 162.457 26.8777C161.897 27.5065 161.617 28.3472 161.617 29.3998C161.617 31.0402 162.259 31.8604 163.544 31.8604Z" fill="#7C898A"/>
<path d="M181.64 13.8162L181.804 15.8667C183.102 14.2263 184.816 13.4061 186.948 13.4061C189.161 13.4061 190.725 14.404 191.641 16.3998C192.911 14.404 194.722 13.4061 197.072 13.4061C200.952 13.4061 202.94 16.0923 203.035 21.4645V36.0023H197.236V21.8336C197.236 20.5486 197.058 19.6327 196.703 19.0859C196.348 18.5392 195.746 18.2658 194.899 18.2658C193.82 18.2658 193.014 18.9287 192.481 20.2547L192.522 20.9519V36.0023H186.722V21.8746C186.722 20.6033 186.551 19.6874 186.21 19.127C185.868 18.5528 185.26 18.2658 184.386 18.2658C183.389 18.2658 182.596 18.8057 182.009 19.8856V36.0023H176.209V13.8162H181.64Z" fill="#7C898A"/>
<path d="M11.7425 8.20572C5.98638 9.77641 3.51948 14.6251 4.9585 20.703C-1.0717 28.2149 3.0398 37.844 12.7703 36.9562C16.1281 42.078 24.077 42.6926 27.6403 37.844C34.5895 38.8996 34.1889 49.1386 49.8142 49.1386C42.7361 41.825 43.1367 36.1072 51.2129 34.8392C56.969 29.7173 57.3116 24.5272 52.3778 17.0835C54.4336 8.20572 44.4722 4.0605 38.4672 8.20572C36.4592 6.45403 34.0553 5.92213 31.2508 6.98592C25.0835 1.31778 17.9783 2.05955 11.7425 8.20572Z" fill="#71C5C9"/>
<path fill-rule="evenodd" clip-rule="evenodd" d="M21.5379 5.02197C18.8206 5.22225 15.9082 6.64338 13.0194 9.49056L12.6462 9.85847L12.1396 9.99669C9.72094 10.6567 8.15326 11.9468 7.28924 13.5668C6.87008 14.3528 6.58932 15.2683 6.47948 16.3027C7.85442 15.3827 9.23616 14.8131 10.4409 14.4628C11.5312 14.1458 12.4849 14.0052 13.1766 13.9439C13.912 13.8788 16.3839 14.07 16.2921 15.9902C16.2165 17.5701 14.7826 17.8066 13.5317 17.9174C13.0507 17.96 12.3601 18.0605 11.564 18.292C10.1554 18.7016 8.44312 19.5113 6.94342 21.1272L6.39097 21.8154C3.77685 25.0719 3.5128 28.5624 4.64263 31.0149C5.74109 33.3993 8.34255 35.2121 12.4552 34.8369L13.6562 34.7273L14.3155 35.7329C17.0101 39.8431 23.2625 40.1101 25.8913 36.5331L26.6088 35.5567L27.8101 35.7392C30.0909 36.0856 31.7256 37.2006 33.0793 38.468C33.7397 39.0863 34.3602 39.767 34.945 40.4121C35.5453 41.0744 36.1192 41.7119 36.7531 42.3389C37.9978 43.5699 39.427 44.7101 41.3974 45.5583C42.4406 46.0073 43.6651 46.3871 45.1303 46.6455C44.7002 46.0183 44.3237 45.3985 44.0032 44.788C43.0635 42.9978 42.5451 41.1685 42.7031 39.4109C42.8673 37.5839 43.7481 36.0277 45.2244 34.8766C46.5153 33.8699 48.2013 33.2146 50.1588 32.8417C52.5116 30.6354 53.538 28.6192 53.6727 26.569C53.8197 24.3325 52.9389 21.6181 50.5735 18.0494L50.1005 17.3358L50.2934 16.5026C51.1078 12.9857 49.5952 10.6022 47.3504 9.37755C44.9746 8.08146 41.8029 8.10615 39.4762 9.71222L38.4348 10.4311C36.2059 12.2155 35.406 14.2009 35.4897 15.8795C35.5814 17.7158 36.7565 19.7231 39.4334 21.1976C40.4015 21.7308 40.7522 22.9445 40.2166 23.9084C39.6811 24.8723 38.4621 25.2214 37.494 24.6882C33.894 22.7053 31.6636 19.5932 31.4882 16.0775C31.3498 13.3053 32.505 10.6153 34.7384 8.38344C34.7139 8.37853 34.6895 8.37385 34.665 8.3694C33.8742 8.2254 32.9443 8.2951 31.8316 8.71717L30.6717 9.15711L29.7597 8.3189C27.0055 5.78767 24.2133 4.82478 21.5379 5.02197ZM38.467 5.67723C41.9329 3.92449 46.0851 4.13863 49.2755 5.87908C52.7985 7.801 55.1728 11.6003 54.3662 16.5451C56.6493 20.158 57.8869 23.539 57.6707 26.8294C57.4362 30.3992 55.5249 33.4266 52.4154 36.1934L51.9754 36.5849L51.3926 36.6764C49.5723 36.9622 48.3968 37.4697 47.6947 38.0172C47.0456 38.5234 46.7543 39.0915 46.6936 39.7665C46.6267 40.5111 46.8305 41.5618 47.554 42.9402C48.2718 44.3076 49.4427 45.8838 51.1244 47.6214L54.3943 51H49.6819C45.5508 51 42.368 50.322 39.8076 49.2199C37.2413 48.1153 35.4066 46.6299 33.9296 45.1692C33.2027 44.4503 32.5514 43.7255 31.9706 43.0848C31.3744 42.427 30.8581 41.8641 30.3347 41.3741C29.6277 40.7122 28.9659 40.2392 28.2253 39.952C23.7238 44.5822 15.7331 43.7837 11.6683 38.8723C6.61409 38.959 2.75247 36.4801 1.00095 32.6781C-0.739989 28.8991 -0.228442 24.1806 2.68074 20.0923C2.12785 17.0393 2.44841 14.1378 3.75069 11.696C5.12456 9.11991 7.48332 7.26052 10.5698 6.29857C13.8231 3.2109 17.45 1.32319 21.2421 1.04369C24.8774 0.775752 28.4009 2.00562 31.5858 4.61356C32.875 4.28275 34.148 4.21995 35.3857 4.44531C36.5037 4.64887 37.5314 5.07632 38.467 5.67723ZM29.8113 21.7259C30.7814 22.2556 31.1365 23.468 30.6045 24.4338C27.8826 29.3758 21.03 32.7039 14.2133 29.3892C13.2192 28.9058 12.8068 27.7115 13.2923 26.7216C13.7779 25.7318 14.9774 25.3212 15.9715 25.8046C20.6401 28.0748 25.2728 25.818 27.0916 22.5157C27.6236 21.5498 28.8412 21.1962 29.8113 21.7259Z" fill="#579598"/>
</svg>
