<?xml version="1.0" standalone="no"?>
<!DOCTYPE svg PUBLIC "-//W3C//DTD SVG 20010904//EN"
 "http://www.w3.org/TR/2001/REC-SVG-20010904/DTD/svg10.dtd">
<svg version="1.0" xmlns="http://www.w3.org/2000/svg"
 width="740.000000pt" height="740.000000pt" viewBox="0 0 740.000000 740.000000"
 preserveAspectRatio="xMidYMid meet">
<metadata>
Created by potrace 1.14, written by Peter Selinger 2001-2017
</metadata>
<g transform="translate(0.000000,740.000000) scale(0.100000,-0.100000)"
fill="#000000" stroke="none">
<path d="M2645 6864 c-449 -67 -829 -252 -1214 -593 -62 -55 -90 -71 -173
-103 -334 -126 -589 -336 -756 -623 -84 -145 -144 -330 -173 -534 -13 -96 -7
-415 10 -501 l11 -56 -54 -82 c-117 -178 -211 -405 -257 -622 -19 -88 -23
-137 -24 -300 0 -169 3 -209 23 -300 141 -631 648 -1045 1319 -1077 l133 -6
97 -96 c194 -191 408 -311 678 -381 342 -88 705 -54 995 92 108 55 177 101
273 183 l77 66 59 -31 c102 -55 215 -155 401 -358 379 -411 582 -577 895 -732
175 -86 297 -131 490 -180 311 -80 564 -102 1097 -98 l377 3 -260 270 c-293
304 -390 416 -500 580 -142 211 -209 380 -209 526 0 107 21 162 89 229 96 95
249 160 472 200 l111 20 75 67 c629 563 799 1190 518 1908 -53 137 -154 342
-234 473 -55 91 -57 97 -50 141 13 80 10 324 -6 414 -46 265 -153 468 -349
663 -271 270 -609 404 -1021 404 -220 0 -380 -31 -566 -110 l-87 -37 -115 57
c-155 77 -255 102 -429 108 -100 3 -165 0 -237 -12 l-100 -17 -81 60 c-245
182 -504 303 -776 361 -78 17 -142 22 -299 25 -110 2 -213 1 -230 -1z m423
-520 c269 -55 486 -178 785 -447 l65 -57 91 35 c158 60 286 84 376 71 l46 -7
-59 -67 c-247 -279 -362 -577 -349 -902 13 -322 145 -594 408 -844 102 -97
271 -219 364 -262 101 -48 212 -28 290 51 79 78 98 182 51 280 -29 61 -55 86
-169 156 -403 249 -539 627 -355 982 81 156 200 282 383 406 123 84 176 111
281 144 234 74 492 56 714 -49 230 -109 374 -278 432 -506 17 -70 20 -102 15
-222 -3 -92 -12 -169 -25 -221 l-20 -80 82 -130 c215 -336 324 -589 361 -835
19 -120 19 -186 0 -291 -38 -220 -143 -411 -335 -612 -98 -103 -101 -105 -162
-117 -35 -6 -115 -29 -178 -50 -467 -153 -711 -446 -711 -854 0 -231 72 -450
236 -720 36 -60 64 -110 62 -112 -2 -2 -50 7 -108 20 -233 53 -457 147 -636
266 -151 100 -298 235 -525 482 -281 304 -405 410 -588 503 -107 54 -224 91
-348 110 -54 8 -107 17 -119 20 -18 4 -35 -12 -100 -97 -170 -222 -367 -323
-653 -335 -354 -15 -647 135 -850 433 -48 71 -77 104 -90 104 -10 0 -76 -5
-146 -11 -356 -30 -655 70 -852 286 -272 297 -282 792 -25 1203 177 282 379
459 646 567 112 45 217 71 367 90 151 19 211 35 268 72 86 56 120 197 69 288
-29 51 -94 100 -160 121 -216 68 -640 -27 -968 -216 -48 -27 -89 -50 -92 -50
-10 0 26 156 55 236 94 262 329 463 646 552 66 19 82 29 159 99 358 327 653
484 1003 533 86 12 272 4 368 -16z"/>
<path d="M3585 4256 c-52 -23 -95 -67 -153 -155 -206 -320 -566 -506 -947
-488 -140 6 -260 35 -407 96 -116 49 -176 53 -253 17 -93 -43 -145 -125 -145
-228 0 -124 59 -195 219 -262 438 -184 885 -177 1311 21 268 124 530 360 672
604 56 96 67 154 44 231 -32 110 -126 178 -245 178 -37 -1 -79 -7 -96 -14z"/>
</g>
</svg>
